<svg width="47" height="41" viewBox="0 0 47 41" fill="none" xmlns="http://www.w3.org/2000/svg">
<path d="M29.3008 40.3281V27.4961C29.3008 24.4492 29.4473 21.666 29.7402 19.1465C30.0332 16.627 30.4434 14.2832 30.9707 12.1152C31.5566 9.88867 32.2598 7.80859 33.0801 5.875C33.959 3.94141 34.9844 2.03711 36.1562 0.162109H46.8789C44.2422 3.9707 42.1914 7.80859 40.7266 11.6758C39.3203 15.543 38.6172 19.3809 38.6172 23.1895H46.3516V40.3281H29.3008ZM0.121094 40.3281V27.4961C0.121094 24.4492 0.267578 21.666 0.560547 19.1465C0.853516 16.627 1.29297 14.2832 1.87891 12.1152C2.46484 9.88867 3.19727 7.80859 4.07617 5.875C4.95508 3.94141 5.98047 2.03711 7.15234 0.162109H17.7871C15.1504 3.9707 13.0996 7.80859 11.6348 11.6758C10.1699 15.543 9.4375 19.3809 9.4375 23.1895H17.2598V40.3281H0.121094Z" fill="#04D500"/>
</svg>
